<svg width="143" height="143" viewBox="0 0 143 143" fill="none" xmlns="http://www.w3.org/2000/svg">
<rect width="143" height="143" rx="40" fill="#FF0001"/>
<path fill-rule="evenodd" clip-rule="evenodd" d="M71.4821 63.4059C72.9667 65.4844 72.4857 68.3729 70.4068 69.8576C55.1568 80.7504 42.2813 100.274 42.2813 121.594C42.2813 124.149 40.2105 126.219 37.6563 126.219C35.102 126.219 33.0312 124.149 33.0312 121.594C33.0312 96.6636 47.9057 74.5626 65.0307 62.3306C67.1092 60.8459 69.9975 61.3274 71.4821 63.4059Z" fill="white"/>
<path d="M50.5696 47.1456C61.3682 33.8062 80.0152 26.7812 110.5 26.7812C112.416 26.7812 113.969 28.3343 113.969 30.25V30.2832C113.969 32.7199 113.969 39.1967 110.393 46.0236C107.262 52.0009 101.56 57.9373 91.5028 61.8473L93.9707 64.3154C98.0009 68.3457 99.1678 75.0681 95.1658 79.9748C79.4778 99.2106 54.1088 103.094 41.125 103.094C39.2093 103.094 37.6562 101.541 37.6562 99.625C37.6562 78.7695 39.9154 60.3066 50.5696 47.1456Z" fill="white"/>
</svg>
